<svg width="23" height="23" viewBox="0 0 23 23" fill="none" xmlns="http://www.w3.org/2000/svg">
<path d="M15.0339 8.81978H0.898438C0.402191 8.81978 0 9.22197 0 9.71822V20.3198C0 20.8158 0.402191 21.2182 0.898438 21.2182H15.0339C15.5302 21.2182 15.9324 20.8158 15.9324 20.3198V9.71822C15.9324 9.22197 15.5302 8.81978 15.0339 8.81978ZM14.1355 19.4213H1.79688V10.6167H14.1355V19.4213ZM19.4661 6.1843V16.7859C19.4661 17.2821 19.0639 17.6843 18.5676 17.6843C18.0714 17.6843 17.6692 17.2821 17.6692 16.7859V7.08274H4.43235C3.9361 7.08274 3.53391 6.68055 3.53391 6.1843C3.53391 5.68806 3.9361 5.28587 4.43235 5.28587H18.5678C19.0639 5.28587 19.4661 5.68806 19.4661 6.1843ZM23 2.65039V13.252C23 13.7482 22.5978 14.1504 22.1016 14.1504C21.6053 14.1504 21.2031 13.7482 21.2031 13.252V3.54883H7.96609C7.46984 3.54883 7.06765 3.14664 7.06765 2.65039C7.06765 2.15414 7.46984 1.75195 7.96609 1.75195H22.1016C22.5978 1.75195 23 2.15414 23 2.65039Z" fill="#3A3A5D"/>
</svg>
