<svg width="35" height="35" viewBox="0 0 35 35" fill="none" xmlns="http://www.w3.org/2000/svg">
<path opacity="0.3" fill-rule="evenodd" clip-rule="evenodd" d="M13.125 16.0417C9.90333 16.0417 7.29166 13.43 7.29166 10.2083C7.29166 6.98667 9.90333 4.375 13.125 4.375C16.3467 4.375 18.9583 6.98667 18.9583 10.2083C18.9583 13.43 16.3467 16.0417 13.125 16.0417ZM27.25 16.0417C26.6977 16.0417 26.25 15.594 26.25 15.0417V11.6667H22.875C22.3227 11.6667 21.875 11.219 21.875 10.6667V9.75C21.875 9.19772 22.3227 8.75 22.875 8.75H26.25V5.375C26.25 4.82272 26.6977 4.375 27.25 4.375H28.1667C28.7189 4.375 29.1667 4.82272 29.1667 5.375V8.75H32.5417C33.0939 8.75 33.5417 9.19772 33.5417 9.75V10.6667C33.5417 11.219 33.0939 11.6667 32.5417 11.6667H29.1667V15.0417C29.1667 15.594 28.7189 16.0417 28.1667 16.0417H27.25Z" fill="#FFA800"/>
<path d="M0.000950373 29.4571C0.56621 22.4969 6.21529 18.9583 13.1007 18.9583C20.083 18.9583 25.8196 22.3025 26.247 29.4583C26.264 29.7433 26.247 30.6249 25.1514 30.6249C19.7475 30.6249 11.7173 30.6249 1.06094 30.6249C0.695205 30.6249 -0.0298401 29.8362 0.000950373 29.4571Z" fill="#FFA800"/>
</svg>
