<svg width="25" height="25" viewBox="0 0 25 25" fill="none" xmlns="http://www.w3.org/2000/svg">
<rect opacity="0.3" x="4.16669" y="4.16675" width="8.33333" height="16.6667" fill="#8950FC"/>
<path fill-rule="evenodd" clip-rule="evenodd" d="M18.75 6.25008H15.625C15.625 6.25008 14.5833 6.07136 14.5833 5.20841C14.5833 4.34547 15.625 4.16675 15.625 4.16675H20.8333V9.37508C20.8333 9.37508 20.8333 10.4167 19.7917 10.4167C18.75 10.4167 18.75 9.37508 18.75 9.37508V6.25008ZM18.75 15.6251L18.75 18.7501H15.625C15.625 18.7501 14.5834 18.7501 14.5834 19.7917C14.5834 20.8334 15.625 20.8334 15.625 20.8334H20.8334V15.6251C20.8334 15.6251 20.6546 14.5834 19.7917 14.5834C18.9287 14.5834 18.75 15.6251 18.75 15.6251ZM9.37502 18.7501H6.25002V15.6251C6.25002 15.6251 6.25002 14.5834 5.20835 14.5834C4.16669 14.5834 4.16669 15.6251 4.16669 15.6251V20.8334H9.37502C9.37502 20.8334 10.4167 20.6547 10.4167 19.7917C10.4167 18.9288 9.37502 18.7501 9.37502 18.7501ZM6.25002 9.37508V6.25008H9.37502C9.37502 6.25008 10.4167 6.25008 10.4167 5.20841C10.4167 4.16675 9.37502 4.16675 9.37502 4.16675H4.16669V9.37508C4.16669 9.37508 4.34541 10.4167 5.20835 10.4167C6.0713 10.4167 6.25002 9.37508 6.25002 9.37508Z" fill="#8950FC"/>
</svg>
