<svg width="50" height="50" viewBox="0 0 50 50" fill="none" xmlns="http://www.w3.org/2000/svg">
<rect x="8.33331" y="8.33325" width="14.5833" height="14.5833" rx="1.5" fill="white"/>
<path opacity="0.3" fill-rule="evenodd" clip-rule="evenodd" d="M27.0833 9.83325C27.0833 9.00482 27.7549 8.33325 28.5833 8.33325H40.1666C40.9951 8.33325 41.6666 9.00482 41.6666 9.83325V21.4166C41.6666 22.245 40.9951 22.9166 40.1666 22.9166H28.5833C27.7549 22.9166 27.0833 22.245 27.0833 21.4166V9.83325ZM8.33331 28.5832C8.33331 27.7548 9.00489 27.0833 9.83331 27.0833H21.4166C22.2451 27.0833 22.9166 27.7548 22.9166 28.5833V40.1666C22.9166 40.995 22.2451 41.6666 21.4166 41.6666H9.83331C9.00488 41.6666 8.33331 40.995 8.33331 40.1666V28.5832ZM28.5833 27.0833C27.7549 27.0833 27.0833 27.7548 27.0833 28.5832V40.1666C27.0833 40.995 27.7549 41.6666 28.5833 41.6666H40.1666C40.9951 41.6666 41.6666 40.995 41.6666 40.1666V28.5833C41.6666 27.7548 40.9951 27.0833 40.1666 27.0833H28.5833Z" fill="white"/>
</svg>
