<svg width="23" height="23" viewBox="0 0 23 23" fill="none" xmlns="http://www.w3.org/2000/svg">
<path fill-rule="evenodd" clip-rule="evenodd" d="M4.83331 2.875C4.28103 2.875 3.83331 3.32272 3.83331 3.875V19.125C3.83331 19.6773 4.28103 20.125 4.83331 20.125H5.70831C6.2606 20.125 6.70831 19.6773 6.70831 19.125V3.875C6.70831 3.32272 6.2606 2.875 5.70831 2.875H4.83331ZM9.62498 2.875C9.07269 2.875 8.62498 3.32272 8.62498 3.875V19.125C8.62498 19.6773 9.07269 20.125 9.62498 20.125H10.5C11.0523 20.125 11.5 19.6773 11.5 19.125V3.875C11.5 3.32272 11.0523 2.875 10.5 2.875H9.62498Z" fill="#0BB783"/>
<rect opacity="0.3" x="12.9156" y="3.7605" width="2.875" height="17.25" rx="1" transform="rotate(-19 12.9156 3.7605)" fill="#0BB783"/>
</svg>
