<svg width="52" height="52" viewBox="0 0 52 52" fill="none" xmlns="http://www.w3.org/2000/svg">
<path opacity="0.3" d="M26 9.88436L16.8312 20.887C16.0651 21.8063 14.6989 21.9305 13.7796 21.1644C12.8604 20.3983 12.7362 19.0321 13.5022 18.1129L24.3355 5.11285C25.2018 4.07339 26.7983 4.07339 27.6645 5.11285L38.4978 18.1129C39.2639 19.0321 39.1397 20.3983 38.2204 21.1644C37.3012 21.9305 35.9349 21.8063 35.1689 20.887L26 9.88436Z" fill="#3699FF"/>
<path fill-rule="evenodd" clip-rule="evenodd" d="M9.09506 19.5C8.37794 19.5 7.89392 20.2326 8.1752 20.8922L16.556 40.5471C17.0275 41.6528 18.1135 42.3704 19.3156 42.3704H32.6845C33.8866 42.3704 34.9727 41.6527 35.4441 40.5468L43.8231 20.8922C44.1043 20.2325 43.6203 19.5 42.9032 19.5H9.09506ZM30.3332 32.5C30.3332 34.8933 28.3931 36.8334 25.9999 36.8334C23.6067 36.8334 21.6666 34.8933 21.6666 32.5C21.6666 30.1068 23.6067 28.1667 25.9999 28.1667C28.3931 28.1667 30.3332 30.1068 30.3332 32.5Z" fill="#3699FF"/>
</svg>
