<svg width="23" height="23" viewBox="0 0 23 23" fill="none" xmlns="http://www.w3.org/2000/svg">
<g clip-path="url(#clip0_436_9464)">
<path d="M16.9505 2.16793C16.5811 1.81768 16.0022 1.81768 15.6323 2.16793C15.582 2.21543 14.5931 3.15598 13.4281 4.48702C11.57 2.12722 9.87369 0.364271 9.7932 0.280978C9.43196 -0.0922013 8.77544 -0.0926691 8.41466 0.281446C7.55366 1.17357 0 9.1355 0 13.8846C0 18.9048 4.08391 22.9888 9.10417 22.9888C12.4923 22.9888 15.5898 21.0978 17.148 18.1353C20.4729 17.7184 23 14.9061 23 11.4888C23 8.00029 17.5701 2.75449 16.9505 2.16793ZM9.10417 21.0721C5.14098 21.0721 1.91667 17.8478 1.91667 13.8846C1.91667 10.8269 6.59767 5.08504 9.10183 2.35043C9.90106 3.22734 11.2833 4.79867 12.6261 6.58689C15.6557 10.6315 16.2917 12.7877 16.2917 13.8846C16.2917 14.9206 16.0781 15.911 15.6525 16.8373C14.4981 19.4097 11.9284 21.0721 9.10417 21.0721ZM17.9664 15.98C17.9755 15.9407 17.9821 15.9005 17.9907 15.8611C17.9999 15.8195 18.0081 15.7772 18.0167 15.735C18.0747 15.4561 18.1211 15.1744 18.1522 14.8883C18.1557 14.8577 18.1571 14.8261 18.1604 14.7954C18.1901 14.495 18.2083 14.1918 18.2083 13.8846C18.2083 13.7599 18.203 13.6331 18.1936 13.5032C18.1901 13.4604 18.184 13.4159 18.1796 13.3729C18.1709 13.2847 18.1622 13.196 18.1489 13.1055C18.1412 13.0521 18.1302 12.9971 18.1206 12.9429C18.1063 12.8596 18.0923 12.7767 18.0747 12.6913C18.0621 12.6319 18.0464 12.5706 18.0324 12.5103C18.0127 12.4274 17.9935 12.3451 17.9711 12.2606C17.954 12.197 17.9337 12.1317 17.9152 12.0667C17.8901 11.9827 17.8658 11.8989 17.838 11.813C17.816 11.7456 17.7914 11.6766 17.7675 11.6076C17.7378 11.5217 17.7076 11.4359 17.6747 11.3488C17.6477 11.2779 17.619 11.2054 17.5902 11.1336C17.5549 11.0454 17.5188 10.9562 17.4805 10.8662C17.4493 10.7925 17.4164 10.7183 17.3827 10.643C17.3419 10.5519 17.3003 10.46 17.2568 10.3669C17.2208 10.2904 17.1833 10.2127 17.1449 10.1345C17.0991 10.0407 17.0516 9.94526 17.0022 9.84957C16.9615 9.77002 16.9199 9.68954 16.8773 9.60835C16.826 9.51172 16.7722 9.41345 16.7182 9.31425C16.6726 9.23189 16.6267 9.14884 16.5792 9.06508C16.5221 8.96447 16.4622 8.86199 16.4019 8.75928C16.352 8.67458 16.3027 8.59012 16.251 8.50449C16.1878 8.39944 16.1211 8.29275 16.0549 8.18582C16.0013 8.09902 15.9482 8.01292 15.892 7.92518C15.8226 7.81592 15.7498 7.70432 15.6768 7.59318C15.619 7.50451 15.5619 7.41677 15.502 7.32669C15.4262 7.21369 15.3467 7.09764 15.2681 6.98253C15.2058 6.89151 15.145 6.80143 15.0809 6.70902C14.9995 6.59203 14.9136 6.47224 14.8287 6.35339C14.7622 6.25956 14.6974 6.16715 14.6284 6.07216C14.6228 6.06397 14.6174 6.05648 14.6113 6.04829C15.25 5.30123 15.8595 4.65618 16.2959 4.20977C18.3742 6.31946 21.0833 9.6755 21.0833 11.4888C21.0833 13.55 19.7963 15.3052 17.9664 15.98Z" fill="#3A3A5D"/>
<path d="M12.0199 11.7686C11.6458 12.1427 11.6458 12.7498 12.0199 13.1237C12.2911 13.3949 12.4406 13.7561 12.4406 14.1398C12.4406 14.5242 12.2911 14.8855 12.0194 15.1566C11.6453 15.531 11.6453 16.1381 12.0194 16.5118C12.2068 16.6992 12.4516 16.7926 12.697 16.7926C12.9422 16.7926 13.1876 16.6992 13.375 16.5118C14.0084 15.8784 14.3572 15.0359 14.3572 14.1398C14.3572 13.244 14.0084 12.4014 13.375 11.7686C13.0011 11.3942 12.3947 11.3942 12.0199 11.7686Z" fill="#3A3A5D"/>
</g>
<defs>
<clipPath id="clip0_436_9464">
<rect width="23" height="23" fill="white"/>
</clipPath>
</defs>
</svg>
