<svg width="23" height="23" viewBox="0 0 23 23" fill="none" xmlns="http://www.w3.org/2000/svg">
<g clip-path="url(#clip0_436_9459)">
<path d="M20.125 0H2.875C1.2894 0 0 1.2894 0 2.875V15.3333C0 16.9189 1.2894 18.2083 2.875 18.2083H8.51433C8.2703 19.307 7.6187 20.2832 6.6599 20.9224L6.41845 21.0833H4.79167C4.26266 21.0833 3.83333 21.5127 3.83333 22.0417C3.83333 22.5707 4.26266 23 4.79167 23H18.2083C18.7373 23 19.1667 22.5707 19.1667 22.0417C19.1667 21.5127 18.7373 21.0833 18.2083 21.0833H16.5816L16.3401 20.9224C15.3813 20.2832 14.7297 19.307 14.4857 18.2083H20.125C21.7106 18.2083 23 16.9189 23 15.3333V2.875C23 1.2894 21.7106 0 20.125 0ZM13.7618 21.0833H9.23823C9.87696 20.2462 10.3002 19.2621 10.4612 18.2083H12.5393C12.6998 19.2621 13.123 20.2462 13.7618 21.0833ZM21.0833 15.3333C21.0833 15.8619 20.6535 16.2917 20.125 16.2917H2.875C2.34647 16.2917 1.91667 15.8619 1.91667 15.3333V2.875C1.91667 2.34647 2.34647 1.91667 2.875 1.91667H20.125C20.6535 1.91667 21.0833 2.34647 21.0833 2.875V15.3333Z" fill="#3A3A5D"/>
<path d="M16.5724 5.55158L12.9375 9.18651L11.2192 7.46825C10.8454 7.09413 10.238 7.09413 9.8641 7.46825L5.07244 12.2599C4.69832 12.6343 4.69832 13.2407 5.07244 13.6151C5.25938 13.8025 5.50458 13.8958 5.75001 13.8958C5.99544 13.8958 6.24064 13.8025 6.42758 13.6151L10.5417 9.50096L12.2599 11.2192C12.6338 11.5933 13.2412 11.5933 13.6151 11.2192L17.9276 6.90673C18.3017 6.53238 18.3017 5.92593 17.9276 5.55158C17.5537 5.17747 16.9463 5.17747 16.5724 5.55158Z" fill="#3A3A5D"/>
</g>
<defs>
<clipPath id="clip0_436_9459">
<rect width="23" height="23" fill="white"/>
</clipPath>
</defs>
</svg>
