<svg width="34" height="34" viewBox="0 0 34 34" fill="none" xmlns="http://www.w3.org/2000/svg">
<path opacity="0.3" fill-rule="evenodd" clip-rule="evenodd" d="M3.18566 15.5745C2.59988 16.1603 2.59988 17.1101 3.18566 17.6958L7.07475 21.5849C7.66054 22.1707 8.61028 22.1707 9.19607 21.5849L13.0852 17.6958C13.6709 17.1101 13.6709 16.1603 13.0852 15.5745L9.19607 11.6854C8.61028 11.0996 7.66054 11.0996 7.07475 11.6854L3.18566 15.5745ZM20.1857 15.5745C19.5999 16.1603 19.5999 17.1101 20.1857 17.6958L24.0747 21.5849C24.6605 22.1707 25.6103 22.1707 26.1961 21.5849L30.0852 17.6958C30.6709 17.1101 30.6709 16.1603 30.0852 15.5745L26.1961 11.6854C25.6103 11.0996 24.6605 11.0996 24.0747 11.6854L20.1857 15.5745Z" fill="#F65464"/>
<path fill-rule="evenodd" clip-rule="evenodd" d="M11.6857 7.07452C11.0999 7.66031 11.0999 8.61005 11.6857 9.19584L15.5748 13.0849C16.1605 13.6707 17.1103 13.6707 17.6961 13.0849L21.5852 9.19584C22.1709 8.61005 22.1709 7.66031 21.5852 7.07452L17.6961 3.18543C17.1103 2.59965 16.1605 2.59965 15.5748 3.18543L11.6857 7.07452ZM11.6857 24.0745C11.0999 24.6603 11.0999 25.6101 11.6857 26.1958L15.5748 30.0849C16.1605 30.6707 17.1103 30.6707 17.6961 30.0849L21.5852 26.1958C22.1709 25.6101 22.1709 24.6603 21.5852 24.0745L17.6961 20.1854C17.1103 19.5996 16.1605 19.5996 15.5748 20.1854L11.6857 24.0745Z" fill="#F65464"/>
</svg>
