<svg width="23" height="23" viewBox="0 0 23 23" fill="none" xmlns="http://www.w3.org/2000/svg">
<path d="M22.9996 4.31412C22.9996 3.79716 22.5666 3.40357 22.0996 3.41428H4.31214C3.5125 3.41428 3.11048 4.38659 3.67973 4.95074L10.2208 11.4351L3.67323 18.056C3.11329 18.6223 3.51583 19.5862 4.31214 19.5862H22.1012C22.5931 19.5862 22.9982 19.1848 22.9995 18.6902C22.9995 18.6893 22.9996 18.6886 22.9996 18.6877V4.31412ZM21.2028 16.5015L16.1926 11.4351L21.2028 6.46844V16.5015ZM6.49471 5.21115H19.9186L13.2067 11.8649L6.49471 5.21115ZM11.4968 12.7001L12.5741 13.7681C12.9243 14.1152 13.4888 14.1152 13.8391 13.7681L14.9163 12.7001L19.9492 17.7893H6.46418L11.4968 12.7001Z" fill="#3A3A5D"/>
<path d="M2.0364 8.98462H4.3125C4.80874 8.98462 5.21093 8.58243 5.21093 8.08618C5.21093 7.58994 4.80874 7.18774 4.3125 7.18774H2.0364C1.54015 7.18774 1.13796 7.58994 1.13796 8.08618C1.13796 8.58243 1.54033 8.98462 2.0364 8.98462Z" fill="#3A3A5D"/>
<path d="M4.07298 11.5002C4.07298 11.004 3.67078 10.6018 3.17454 10.6018H0.898438C0.402191 10.6018 0 11.004 0 11.5002C0 11.9965 0.402191 12.3987 0.898438 12.3987H3.17454C3.67061 12.3987 4.07298 11.9965 4.07298 11.5002Z" fill="#3A3A5D"/>
<path d="M5.21093 14.9143C5.21093 14.4181 4.80874 14.0159 4.3125 14.0159H2.0364C1.54015 14.0159 1.13796 14.4181 1.13796 14.9143C1.13796 15.4106 1.54015 15.8127 2.0364 15.8127H4.3125C4.80874 15.8127 5.21093 15.4106 5.21093 14.9143Z" fill="#3A3A5D"/>
</svg>
