<svg width="28" height="28" viewBox="0 0 28 28" fill="none" xmlns="http://www.w3.org/2000/svg">
<path d="M9.32272 28C5.81299 28 2.95764 25.1447 2.95764 21.6349V10.7345C2.95764 4.81545 7.77304 0 13.6921 0H14.3078C20.2269 0 25.0424 4.81545 25.0424 10.7345C25.0424 16.1662 20.993 20.7001 15.6878 21.3807V21.6349C15.6878 25.1447 12.8325 28 9.32272 28Z" fill="#FF3C3C"/>
<path d="M14.3078 0H14V25.9471C15.0471 24.8123 15.6878 23.2971 15.6878 21.6349V21.3807C20.993 20.7001 25.0424 16.1662 25.0424 10.7345C25.0423 4.81545 20.2269 0 14.3078 0Z" fill="#DA0806"/>
<path d="M14.3079 3.27295H13.6922C9.5779 3.27295 6.23059 6.62032 6.23059 10.7345V21.6347C6.23059 23.34 7.61758 24.727 9.32284 24.727C11.0276 24.727 12.4145 23.34 12.4145 21.6347V18.1961H14.3078C18.4221 18.1961 21.7694 14.8488 21.7694 10.7346C21.7694 6.62037 18.4221 3.27295 14.3079 3.27295ZM14.3079 13.6608H11.59C11.1348 13.6608 10.7653 13.2919 10.7653 12.8362V10.7345C10.7653 9.12047 12.0781 7.80769 13.6922 7.80769H14.3079C15.9219 7.80769 17.2347 9.12047 17.2347 10.7345C17.2347 12.348 15.9219 13.6608 14.3079 13.6608Z" fill="white"/>
<path d="M14.3078 3.27295H14V7.80775H14.3078C15.9219 7.80775 17.2347 9.12052 17.2347 10.7346C17.2347 12.3481 15.9219 13.6608 14.3078 13.6608H14V18.1962H14.3078C18.4221 18.1962 21.7694 14.8488 21.7694 10.7346C21.7694 6.62043 18.4221 3.27295 14.3078 3.27295Z" fill="#DCE1EB"/>
</svg>
