<svg width="23" height="23" viewBox="0 0 23 23" fill="none" xmlns="http://www.w3.org/2000/svg">
<g clip-path="url(#clip0_436_9470)">
<path d="M15.2102 11.7696L13.5347 14.8018L13.0765 13.5126C12.9462 13.1442 12.6003 12.9016 12.214 12.9016H10.8034L9.50517 8.51275C9.27157 7.7356 8.21142 7.60083 7.79814 8.37349L6.05966 11.9627H4.68056C4.17294 11.9627 3.76415 12.3715 3.76415 12.8792C3.76415 13.3868 4.17294 13.7956 4.68056 13.7956H6.63466C6.98505 13.7956 7.30849 13.5934 7.46122 13.279L8.41806 11.3024L9.24013 14.0786C9.35693 14.4694 9.71181 14.7344 10.1206 14.7344H11.5671L12.488 17.3309C12.6991 17.9374 13.6335 18.2698 14.1546 17.4702L16.5579 13.1307H18.3278C18.8354 13.1307 19.2442 12.7219 19.2442 12.2143C19.2442 11.7067 18.8354 11.2979 18.3278 11.2979H16.0188C15.6774 11.2934 15.372 11.4776 15.2102 11.7696Z" fill="#3A3A5D"/>
<path d="M21.5895 3.28828H17.9777V1.41055C17.9777 0.90293 17.5689 0.494141 17.0613 0.494141C16.5537 0.494141 16.1449 0.90293 16.1449 1.41055V3.28828H6.85508V1.41055C6.85508 0.90293 6.44629 0.494141 5.93867 0.494141C5.43105 0.494141 5.02227 0.90293 5.02227 1.41055V3.28828H1.41055C0.90293 3.28828 0.494141 3.69707 0.494141 4.20469V21.5895C0.494141 22.0971 0.90293 22.5059 1.41055 22.5059H21.5895C22.0971 22.5059 22.5059 22.0971 22.5059 21.5895V4.20469C22.5059 3.69707 22.0971 3.28828 21.5895 3.28828ZM20.673 20.673H2.32695V5.12109H5.01777V6.54063C5.01777 7.04824 5.42656 7.45703 5.93418 7.45703C6.4418 7.45703 6.85059 7.04824 6.85059 6.54063V5.12109H16.1404V6.54063C16.1404 7.04824 16.5492 7.45703 17.0568 7.45703C17.5645 7.45703 17.9732 7.04824 17.9732 6.54063V5.12109H20.6641V20.673H20.673Z" fill="#3A3A5D"/>
</g>
<defs>
<clipPath id="clip0_436_9470">
<rect width="23" height="23" fill="white"/>
</clipPath>
</defs>
</svg>
