<svg width="23" height="23" viewBox="0 0 23 23" fill="none" xmlns="http://www.w3.org/2000/svg">
<g clip-path="url(#clip0_436_9454)">
<path d="M3.53141 17.3331C3.82531 18.8979 4.86939 20.208 6.32765 20.8435L10.0004 22.6689C10.0168 22.6771 10.033 22.6841 10.0493 22.6914C10.529 22.8971 11.0443 23 11.5593 23C12.0746 23 12.5896 22.8975 13.0693 22.6914C13.0856 22.6841 13.102 22.6767 13.1182 22.6689L16.7909 20.8435C18.2492 20.208 19.294 18.8979 19.5916 17.3107L21.5899 5.04515C21.6891 4.51609 21.5597 3.96573 21.2347 3.53588C20.9099 3.1065 20.4158 2.83203 19.8886 2.78406L17.1878 2.51145C16.5064 2.44968 15.8571 2.24915 15.2892 1.93442L12.4894 0.240301C11.9063 -0.0830796 11.2104 -0.0830797 10.5971 0.258553L7.85938 1.91664C7.17635 2.29618 6.83752 2.45576 6.23148 2.51145L3.23869 2.78312C2.7019 2.83203 2.20841 3.1065 1.88292 3.53588C1.56095 3.96246 1.43108 4.50696 1.52538 5.03204L3.53141 17.3331ZM6.40627 4.41968C7.39911 4.32959 8.0213 4.01955 8.8225 3.57379L11.5598 1.91617L14.3284 3.59157C15.1616 4.05488 16.0656 4.33334 17.0053 4.41875L19.7018 4.71381L17.7035 16.9796C17.5262 17.9242 16.893 18.7144 16.0099 19.093C15.9935 19.1 15.9773 19.1078 15.961 19.1155L12.2922 20.9388C11.8249 21.1321 11.2939 21.1321 10.8267 20.9388L7.15763 19.1155C7.14148 19.1073 7.1251 19.1 7.10872 19.093C6.22563 18.7144 5.59197 17.9247 5.41905 17.0025L3.41699 4.71428C3.41535 4.70679 3.41442 4.69954 3.41301 4.69182L6.40627 4.41968Z" fill="#3A3A5D"/>
<path d="M10.4027 15.0531C10.5897 15.2405 10.8351 15.3339 11.0804 15.3339C11.3258 15.3339 11.5711 15.2405 11.758 15.0531L16.5502 10.2609C16.9246 9.88652 16.9246 9.28001 16.5502 8.90562C16.1765 8.53146 15.5689 8.53146 15.1949 8.90562L11.0804 13.0197L8.8827 10.8225C8.50901 10.4483 7.90133 10.4483 7.52741 10.8225C7.15325 11.1969 7.15325 11.8034 7.52741 12.1778L10.4027 15.0531Z" fill="#3A3A5D"/>
</g>
<defs>
<clipPath id="clip0_436_9454">
<rect width="23" height="23" fill="white"/>
</clipPath>
</defs>
</svg>
