<svg width="153" height="153" viewBox="0 0 153 153" fill="none" xmlns="http://www.w3.org/2000/svg">
<circle cx="76.5" cy="76.5" r="70" stroke="#F64E60" stroke-width="13"/>
<mask id="path-2-inside-1_436_9269" fill="white">
<path d="M122.9 128.957C125.266 131.632 125.03 135.744 122.165 137.875C111.979 145.454 100.037 150.4 87.4029 152.219C72.6297 154.346 57.5568 152.105 44.0413 145.773C30.5257 139.44 19.158 129.291 11.3386 116.578C3.5191 103.864 -0.410484 89.1413 0.0339165 74.2223C0.478317 59.3032 5.27729 44.8401 13.8396 32.6146C22.4019 20.3892 34.3536 10.9355 48.2221 5.4183C62.0906 -0.0989102 77.2701 -1.43864 91.8906 1.56416C104.394 4.13205 116.021 9.77975 125.737 17.9514C128.471 20.2501 128.461 24.3684 125.94 26.898C123.419 29.4275 119.343 29.4047 116.57 27.1534C108.67 20.7384 99.3187 16.2931 89.2886 14.2331C77.1399 11.7379 64.5267 12.8512 53.0028 17.4356C41.479 22.0201 31.548 29.8755 24.4332 40.034C17.3185 50.1926 13.3308 62.2106 12.9616 74.6073C12.5923 87.0041 15.8575 99.2381 22.355 109.802C28.8525 120.366 38.2983 128.799 49.5289 134.061C60.7594 139.323 73.284 141.185 85.5596 139.418C95.6946 137.958 105.294 134.078 113.562 128.144C116.464 126.062 120.534 126.282 122.9 128.957Z"/>
</mask>
<path d="M122.9 128.957C125.266 131.632 125.03 135.744 122.165 137.875C111.979 145.454 100.037 150.4 87.4029 152.219C72.6297 154.346 57.5568 152.105 44.0413 145.773C30.5257 139.44 19.158 129.291 11.3386 116.578C3.5191 103.864 -0.410484 89.1413 0.0339165 74.2223C0.478317 59.3032 5.27729 44.8401 13.8396 32.6146C22.4019 20.3892 34.3536 10.9355 48.2221 5.4183C62.0906 -0.0989102 77.2701 -1.43864 91.8906 1.56416C104.394 4.13205 116.021 9.77975 125.737 17.9514C128.471 20.2501 128.461 24.3684 125.94 26.898C123.419 29.4275 119.343 29.4047 116.57 27.1534C108.67 20.7384 99.3187 16.2931 89.2886 14.2331C77.1399 11.7379 64.5267 12.8512 53.0028 17.4356C41.479 22.0201 31.548 29.8755 24.4332 40.034C17.3185 50.1926 13.3308 62.2106 12.9616 74.6073C12.5923 87.0041 15.8575 99.2381 22.355 109.802C28.8525 120.366 38.2983 128.799 49.5289 134.061C60.7594 139.323 73.284 141.185 85.5596 139.418C95.6946 137.958 105.294 134.078 113.562 128.144C116.464 126.062 120.534 126.282 122.9 128.957Z" stroke="#3699FF" stroke-width="20" mask="url(#path-2-inside-1_436_9269)"/>
<mask id="path-3-inside-2_436_9269" fill="white">
<path d="M122.892 128.948C125.262 131.628 125.027 135.747 122.155 137.883C114.194 143.804 105.139 148.133 95.4868 150.606C83.7382 153.616 71.4422 153.79 59.6133 151.113C47.7844 148.436 36.7615 142.985 27.454 135.209C18.1464 127.433 10.821 117.556 6.08195 106.392C1.34291 95.2284 -0.673897 83.0977 0.197895 71.001C1.06969 58.9043 4.8051 47.1882 11.096 36.8192C17.3868 26.4503 26.0529 17.7256 36.3792 11.365C44.8626 6.13952 54.2668 2.63261 64.057 1.01871C67.5876 0.43671 70.7148 3.12843 70.996 6.69556C71.2773 10.2627 68.6034 13.3489 65.0835 13.9918C57.3406 15.406 49.9086 18.2501 43.175 22.3978C34.5978 27.681 27.3996 34.9279 22.1743 43.5405C16.949 52.1531 13.8463 61.8847 13.1222 71.9325C12.3981 81.9802 14.0733 92.0561 18.0096 101.329C21.9459 110.602 28.0305 118.806 35.7615 125.265C43.4925 131.723 52.6483 136.251 62.4736 138.475C72.2989 140.698 82.5122 140.554 92.2708 138.054C99.9318 136.091 107.14 132.72 113.536 128.133C116.444 126.047 120.521 126.268 122.892 128.948Z"/>
</mask>
<path d="M122.892 128.948C125.262 131.628 125.027 135.747 122.155 137.883C114.194 143.804 105.139 148.133 95.4868 150.606C83.7382 153.616 71.4422 153.79 59.6133 151.113C47.7844 148.436 36.7615 142.985 27.454 135.209C18.1464 127.433 10.821 117.556 6.08195 106.392C1.34291 95.2284 -0.673897 83.0977 0.197895 71.001C1.06969 58.9043 4.8051 47.1882 11.096 36.8192C17.3868 26.4503 26.0529 17.7256 36.3792 11.365C44.8626 6.13952 54.2668 2.63261 64.057 1.01871C67.5876 0.43671 70.7148 3.12843 70.996 6.69556C71.2773 10.2627 68.6034 13.3489 65.0835 13.9918C57.3406 15.406 49.9086 18.2501 43.175 22.3978C34.5978 27.681 27.3996 34.9279 22.1743 43.5405C16.949 52.1531 13.8463 61.8847 13.1222 71.9325C12.3981 81.9802 14.0733 92.0561 18.0096 101.329C21.9459 110.602 28.0305 118.806 35.7615 125.265C43.4925 131.723 52.6483 136.251 62.4736 138.475C72.2989 140.698 82.5122 140.554 92.2708 138.054C99.9318 136.091 107.14 132.72 113.536 128.133C116.444 126.047 120.521 126.268 122.892 128.948Z" stroke="#0BB783" stroke-width="20" mask="url(#path-3-inside-2_436_9269)"/>
<mask id="path-4-inside-3_436_9269" fill="white">
<path d="M122.906 128.964C125.269 131.635 125.033 135.741 122.172 137.87C110.574 146.502 96.7255 151.698 82.22 152.786C65.561 154.035 48.9511 149.797 34.9274 140.718C20.9037 131.64 10.2373 118.22 4.55736 102.51C-0.388301 88.8301 -1.31654 74.0682 1.81106 59.9524C2.58256 56.4703 6.23232 54.575 9.63693 55.6373C13.0415 56.6996 14.9057 60.3177 14.194 63.8124C11.8709 75.2204 12.717 87.0924 16.7033 98.1185C21.4243 111.177 30.29 122.331 41.9461 129.876C53.6021 137.422 67.4078 140.945 81.2543 139.907C92.9461 139.03 104.124 134.942 113.581 128.152C116.479 126.073 120.543 126.292 122.906 128.964Z"/>
</mask>
<path d="M122.906 128.964C125.269 131.635 125.033 135.741 122.172 137.87C110.574 146.502 96.7255 151.698 82.22 152.786C65.561 154.035 48.9511 149.797 34.9274 140.718C20.9037 131.64 10.2373 118.22 4.55736 102.51C-0.388301 88.8301 -1.31654 74.0682 1.81106 59.9524C2.58256 56.4703 6.23232 54.575 9.63693 55.6373C13.0415 56.6996 14.9057 60.3177 14.194 63.8124C11.8709 75.2204 12.717 87.0924 16.7033 98.1185C21.4243 111.177 30.29 122.331 41.9461 129.876C53.6021 137.422 67.4078 140.945 81.2543 139.907C92.9461 139.03 104.124 134.942 113.581 128.152C116.479 126.073 120.543 126.292 122.906 128.964Z" stroke="#8950FC" stroke-width="20" mask="url(#path-4-inside-3_436_9269)"/>
<path d="M48.048 75.376C46.508 76.102 45.606 77.466 45.606 79.292C45.606 82.504 48.268 84.308 51.546 84.308C54.824 84.308 57.486 82.504 57.486 79.292C57.486 77.466 56.584 76.124 55.022 75.376C56.232 74.738 57.09 73.572 57.09 71.922C57.09 69.634 55.33 67.61 51.546 67.61C47.762 67.61 45.98 69.634 45.98 71.922C45.98 73.616 46.816 74.716 48.048 75.376ZM51.546 74.364C50.468 74.364 49.654 73.682 49.654 72.516C49.654 71.284 50.424 70.602 51.546 70.602C52.668 70.602 53.438 71.284 53.438 72.494C53.438 73.66 52.624 74.364 51.546 74.364ZM51.546 77.004C52.888 77.004 53.812 77.796 53.812 79.116C53.812 80.304 52.976 81.228 51.546 81.228C50.094 81.228 49.236 80.326 49.236 79.116C49.236 77.752 50.204 77.004 51.546 77.004ZM59.1016 87.322H61.5656L64.3596 80.194H60.5096L59.1016 87.322ZM66.1865 72.472H69.8605C69.9265 71.592 70.3665 70.712 71.5765 70.712C72.5885 70.712 73.2265 71.306 73.2265 72.384C73.2265 73.836 71.9945 74.144 70.7185 74.144H70.0145V77.202H70.7185C72.6765 77.202 73.5345 77.774 73.5345 79.204C73.5345 80.26 72.8965 81.008 71.7305 81.008C70.3445 81.008 69.6625 80.172 69.6405 78.918H65.9885C66.0985 82.548 68.5185 84.132 71.8625 84.132C75.2285 84.132 77.1645 82.196 77.1645 79.49C77.1645 77.378 76.0645 76.146 74.4585 75.618V75.53C75.5585 75.156 76.8785 74.034 76.8785 71.922C76.8785 69.502 75.0525 67.566 71.6645 67.566C68.3865 67.566 66.3185 69.304 66.1865 72.472ZM86.8548 84H90.6168V81.14H92.4208V77.884H90.6168V68.16H86.4148L79.4628 78.104V81.14H86.8548V84ZM83.4228 77.884L87.1188 72.296V77.884H83.4228ZM95.2974 67.918V77.488H98.9274C99.1254 76.74 99.7414 76.168 100.797 76.168C102.139 76.168 102.865 76.938 102.865 78.39C102.865 79.776 102.249 80.81 100.819 80.81C99.5874 80.81 98.9494 80.062 98.7954 79.226H95.1214C95.2534 81.998 97.3434 84 100.951 84C104.515 84 106.495 81.8 106.495 78.412C106.495 75.816 105.153 73.154 101.655 73.154C100.379 73.154 99.2794 73.616 98.7074 74.254V71.218H105.571V67.918H95.2974Z" fill="#464E5F"/>
</svg>
